<?xml version="1.0" encoding="utf-8"?>
<!-- Generator: Adobe Illustrator 22.1.0, SVG Export Plug-In . SVG Version: 6.00 Build 0)  -->
<svg version="1.1" id="Layer_1" xmlns="http://www.w3.org/2000/svg" xmlns:xlink="http://www.w3.org/1999/xlink" x="0px" y="0px"
	 viewBox="0 0 533.5 121.9" style="enable-background:new 0 0 533.5 121.9;" xml:space="preserve">
<style type="text/css">
	.st0{fill:#FFFFFF;}
</style>
<g>
	<g id="Layer_1_1_">
		<path class="st0" d="M186.4,70.6h-14l-2.8,10.8h-10.5l14.4-45.6h12.3l14.3,45.6h-10.9L186.4,70.6z M184.3,62.6l-1.1-4.2
			c-1.2-4.5-2.4-9.9-3.7-14.7h-0.3c-1,4.8-2.3,10.2-3.6,14.7l-1.1,4.2H184.3z"/>
		<path class="st0" d="M218.9,35.8h10.4v37h18v8.6h-28.4V35.8z"/>
		<path class="st0" d="M284.8,34.9c5.1,0.1,10,2.2,13.5,6l-5.7,6.4c-2.3-2.1-4.5-3.4-7.7-3.4c-6.4,0-11.3,5.5-11.3,14.7
			c0,9.4,4.4,14.8,11.1,14.8c3.4,0,6.5-1.5,8.7-4.1l5.7,6.2c-3.6,4.3-8.9,6.8-14.5,6.7c-11.8,0-21.5-8-21.5-23.4
			C263.1,43.7,273.1,34.9,284.8,34.9z"/>
		<path class="st0" d="M319.4,35.8h10.4v17.6h15.8V35.8h10.3v45.6h-10.3v-19h-15.8v19h-10.4V35.8z"/>
		<path class="st0" d="M379.9,35.8h28.6v8.7h-18.3v9.2h15.5v8.6h-15.5v10.5h19v8.7h-29.4V35.8z"/>
		<path class="st0" d="M432.3,35.8h10.9l7.6,20.5l2.7,8h0.3l2.7-8l7.4-20.5h11v45.6h-9.7V64.7c0-4.5,0.8-11.1,1.3-15.5h-0.3
			l-3.7,10.6l-7.1,17.7h-4.1l-7-17.7l-3.6-10.6h-0.3c0.5,4.4,1.3,11.1,1.3,15.5v16.7h-9.5L432.3,35.8z"/>
		<path class="st0" d="M503.6,65.2l-13.7-29.4h11l4.1,10.5c1.2,3.4,2.4,6.6,3.7,10.1h0.2c1.3-3.5,2.6-6.7,3.8-10.1l4.2-10.5h10.8
			L514,65.2v16.2h-10.3V65.2z"/>
		<path class="st0" d="M75.4,78.1c22.7-29.8,29.7-61.7,15.7-71.4C86.6,3.6,80.6,3.2,73.7,5c5.4-1.3,10.1-0.8,13.6,1.6
			c11.6,8,5.5,34.9-13.7,60s-44.2,39-55.8,31s-5.5-34.8,13.7-60C42.2,23.5,54.7,12.9,65.8,7.8c-13.3,5.9-28.4,18.5-41.2,35.3
			C1.8,72.8-5.2,104.8,8.8,114.4S52.7,107.8,75.4,78.1z"/>
		<path class="st0" d="M80.6,70.9L74,65.8c-0.2,0.3-0.4,0.6-0.6,0.8c-5.8,7.7-12.6,14.7-20.1,20.8l6.5,8.3
			c5.6-5.4,10.8-11.2,15.6-17.4C77.1,75.8,78.9,73.4,80.6,70.9z"/>
		<path class="st0" d="M76.1,31.1c-6.7-2.2-12.5-2-16.3,1c-9.3,7.4-2.8,29,14.5,48.4s41.3,33.3,50.5,25.9s0.4-32.9-16.5-52.1
			c0.7,0.8,1.4,1.5,2.1,2.3c20.4,22.9,27.9,48.7,16.7,57.6s-36.8-2.4-57.2-25.3S42,40.2,53.2,31.3C58.3,27.1,66.7,27.4,76.1,31.1z"
			/>
	</g>
</g>
</svg>
