<!-- <svg xmlns="http://www.w3.org/2000/svg" preserveAspectRatio="xMidYMid meet" viewBox="0 0 510 163" focusable="false">
  <g fill="none" fill-rule="evenodd">
  <title>Fuc you</title>
    <path fill="#50287D" d="M450.543136,108 C434.181069,108 436.356805,107.974162 409,108 C421.051145,95.6339363 440.412539,78.7447759 437.255205,58.8555811 C436.693093,55.3143393 433.885331,51.3652717 428.135571,51.3925066 C436.175028,41.4782866 459.401989,41.9538508 467.384815,60.9799072 C473.849799,76.3865086 459.406184,94.2526355 450.543136,108"/>
    <path fill="#50287D" d="M362,43.8344741 C370.31457,56.842293 386.71154,83.4558783 403.5007,83.9869963 C420.978514,84.5392183 431.700516,67.3865685 429.778143,54.7895746 L429.766713,54.8015336 C428.734446,59.7096268 422.755156,61.5773332 419.153295,60.8907489 C402.100532,57.6273628 394.921812,42.0645497 385.297799,17 L385.090631,17.2342547 L383.441862,19.1385414 L362.025717,43.8752752"/>
    <path fill="#F57F29" d="M504.838442 4.16908421L474.567804 35.7534C461.450007 34.5511895 435.992732 30.0734526 425.858964 42.0060316 423.499862 44.7884526 421.956007 49.3926632 425.568514 53.9847947 414.701167 51.7892684 400.043775 30.0151895 410.755601 15.6447947 422.936007-.6966 461.996109-2.42531053 504.838442 4.16908421M17.4072804 140.293903L22.3139924 140.293903C27.4552058 140.293903 29.1487484 138.3531 29.1487484 135.528744 29.1487484 132.293834 26.286975 131.764133 23.5998303 131.764133L19.2184302 131.764133 17.4072804 140.293903zM8.70364022 121L29.3825371 121C37.0348409 121 42 125.235457 42 134.529633 42 143.000547 34.932168 150.294347 23.9498006 150.294347L15.3046076 150.294347 12.6759101 163 0 163 8.70364022 121zM53.8604525 148.000154L61.8214721 148.000154 60.4268047 135.411997 60.3105234 135.411997 53.8604525 148.000154zM56.9986314 121L69.5499291 121 76 163 63.4487023 163 62.7517231 157.000205 49.2120338 157.000205 46.0157141 163 33 163 56.9986314 121zM96.3618538 139.352525L103.075396 139.352525C107.300401 139.352525 109.267786 137.176262 109.267786 134.64686 109.267786 132.99959 108.284093 130.99918 104.984875 130.99918L98.0976155 130.99918 96.3618538 139.352525zM87.5651153 121L108.51501 121C116.155045 121 122 123.117406 122 131.999744 122 138.117252 118.296147 142.588208 112.335381 143.588054L112.335381 143.705768C116.097139 144.764471 116.617585 148.352576 116.617585 152.293822 116.617585 156.235068 116.155045 160.529454 117.196643 163L105.042781 163C104.58024 161.941297 104.522335 160.764881 104.522335 158.882184 104.522335 156.882492 105.158592 154.294232 105.158592 152.176109 105.158592 149.999846 103.538642 148.352576 100.007801 148.352576L94.5095743 148.352576 91.5005912 163 79 163 87.5651153 121z"/>
    <polygon fill="#F57F29" points="136.202 131.764 125 131.764 127.15 121 162 121 159.85 131.764 148.648 131.764 142.425 163 129.979 163"/>
    <polygon fill="#F57F29" points="166.848 121 180 121 171.152 163 158 163"/>
    <path fill="#F57F29" d="M220.793593,146.249129 C220.02754,150.494419 216.725961,163.000355 199.218242,163.000355 C187.015347,163.000355 181.120698,155.205968 181.120698,144.097387 C181.120698,130.661774 189.609137,119.495 203.933961,119.495 C213.307137,119.495 221.677611,123.508226 221.91354,135.954548 L209.652382,135.954548 C209.770347,132.05771 207.883628,129.847774 203.874979,129.847774 C196.682716,129.847774 194.089646,137.989903 194.089646,143.864613 C194.089646,147.296613 194.914681,152.647581 200.868312,152.647581 C204.935944,152.647581 207.234821,149.913194 208.060575,146.249129 L220.793593,146.249129 Z"/>
    <polygon fill="#F57F29" points="231.848 121 245 121 236.152 163 223 163"/>
    <path fill="#F57F29" d="M261.40728,140.293903 L266.313992,140.293903 C271.455206,140.293903 273.148748,138.3531 273.148748,135.528744 C273.148748,132.293834 270.286975,131.764133 267.59983,131.764133 L263.21843,131.764133 L261.40728,140.293903 Z M252.70364,121 L273.382537,121 C281.034841,121 286,125.235457 286,134.529633 C286,143.000547 278.932168,150.294347 267.949801,150.294347 L259.304608,150.294347 L256.67591,163 L244,163 L252.70364,121 Z"/>
    <path fill="#50287D" d="M297.860818 148.000154L305.821706 148.000154 304.427062 135.411997 304.311491 135.411997 297.860818 148.000154zM300.998945 121L313.550035 121 320 163 307.4482 163 306.751233 157.000205 293.211766 157.000205 290.016918 163 277 163 300.998945 121zM361.61724 146.249129C360.864395 150.494419 357.61974 163.000355 340.413171 163.000355 328.420671 163.000355 322.627653 155.205968 322.627653 144.097387 322.627653 130.661774 330.970447 119.495 345.048291 119.495 354.25986 119.495 362.486016 123.508226 362.717878 135.954548L350.667412 135.954548C350.783343 132.05771 348.92986 129.847774 344.990326 129.847774 337.922067 129.847774 335.372998 137.989903 335.372998 143.864613 335.372998 147.296613 336.183809 152.647581 342.035498 152.647581 346.032998 152.647581 348.29224 149.913194 349.103757 146.249129L361.61724 146.249129z"/>
    <polygon fill="#50287D" points="374.202 131.764 363 131.764 365.15 121 400 121 397.85 131.764 386.649 131.764 380.426 163 367.979 163"/>
    <polygon fill="#50287D" points="406.848 121 420 121 411.152 163 398 163"/>
    <path fill="#50287D" d="M19.769895,33.6472968 C27.522795,33.6472968 30.049045,24.574071 30.049045,18.4083935 C30.049045,14.6279419 28.580595,10.8474903 23.5288117,10.8474903 C15.7766283,10.8474903 13.2503783,19.9207161 13.2503783,26.0863935 C13.2503783,29.8668452 14.7188283,33.6472968 19.769895,33.6472968 M23.8814117,0.494716129 C35.7458283,0.494716129 42.970545,6.02026452 42.970545,18.700071 C42.970545,32.6580065 33.6904283,44.000071 19.4180117,44.000071 C7.553595,44.000071 0.328878333,37.7762 0.328878333,25.7954258 C0.328878333,11.8367806 9.608995,0.494716129 23.8814117,0.494716129" transform="translate(420 119)"/>
    <polygon fill="#50287D" points="472.607 121 485.285 121 493.078 143.941 493.194 143.941 497.846 121 510 121 501.277 163 488.716 163 481.098 139.47 480.981 139.47 476.155 163 464 163"/>
  </g>
</svg> -->

<svg xmlns="http://www.w3.org/2000/svg" preserveAspectRatio="xMidYMid meet" viewBox="0 0 510 163" focusable="false">
  <g fill-rule="evenodd">
    <path fill="#50287D" d="M450.543 108c-16.362 0-14.186-.026-41.543 0 12.051-12.366 31.413-29.255 28.255-49.144-.562-3.542-3.37-7.49-9.12-7.463 8.04-9.915 31.267-9.44 39.25 9.587 6.465 15.407-7.979 33.273-16.842 47.02"/>
    <path fill="#50287D" d="M362 43.834c8.315 13.008 24.712 39.622 41.5 40.153 17.479.552 28.2-16.6 26.278-29.197l-.011.012c-1.033 4.908-7.012 6.775-10.614 6.089-17.052-3.264-24.231-18.826-33.855-43.891l-.207.234-1.65 1.905-21.415 24.736"/>
    <path fill="#FFFFFF" d="M504.838 4.17l-30.27 31.583c-13.118-1.202-38.575-5.68-48.709 6.253-2.36 2.782-3.903 7.387-.29 11.979-10.868-2.196-25.525-23.97-14.813-38.34 12.18-16.342 51.24-18.07 94.082-11.476M17.408 140.294h4.906c5.141 0 6.835-1.94 6.835-4.765 0-3.235-2.862-3.765-5.55-3.765h-4.38l-1.812 8.53zM8.703 121h20.679C37.035 121 42 125.235 42 134.53c0 8.47-7.068 15.764-18.05 15.764h-8.645L12.675 163H0l8.704-42zm45.156 27h7.961l-1.394-12.588h-.116L53.86 148zM57 121h12.55L76 163H63.449l-.697-6h-13.54l-3.196 6H33l23.999-42zm39.363 18.353h6.713c4.225 0 6.193-2.177 6.193-4.706 0-1.647-.984-3.648-4.283-3.648h-6.887l-1.736 8.354zM87.565 121h20.95c7.64 0 13.485 2.117 13.485 11 0 6.117-3.704 10.588-9.665 11.588v.118c3.762 1.058 4.283 4.647 4.283 8.588 0 3.941-.463 8.235.579 10.706h-12.154c-.463-1.059-.52-2.235-.52-4.118 0-2 .636-4.588.636-6.706 0-2.176-1.62-3.823-5.151-3.823H94.51L91.5 163H79l8.565-42zM136.202 131.764H125L127.15 121H162l-2.15 10.764h-11.202L142.425 163h-12.446zM166.848 121H180l-8.848 42H158zM220.794 146.25c-.766 4.244-4.068 16.75-21.576 16.75-12.203 0-18.097-7.794-18.097-18.903 0-13.435 8.488-24.602 22.813-24.602 9.373 0 17.744 4.013 17.98 16.46h-12.262c.118-3.897-1.768-6.107-5.777-6.107-7.192 0-9.785 8.142-9.785 14.017 0 3.432.825 8.783 6.778 8.783 4.068 0 6.367-2.735 7.193-6.399h12.733zM231.848 121H245l-8.848 42H223zM261.407 140.294h4.907c5.141 0 6.835-1.94 6.835-4.765 0-3.235-2.862-3.765-5.55-3.765h-4.38l-1.812 8.53zM252.704 121h20.679c7.652 0 12.617 4.235 12.617 13.53 0 8.47-7.068 15.764-18.05 15.764h-8.645L256.675 163H244l8.704-42z"/>
    <path fill="#50287D" d="M297.86 148h7.962l-1.395-12.588h-.116L297.861 148zM301 121h12.551l6.45 42h-12.552l-.697-6h-13.54l-3.194 6H277l23.999-42zm60.618 25.25c-.753 4.244-3.997 16.75-21.204 16.75-11.992 0-17.785-7.794-17.785-18.903 0-13.435 8.342-24.602 22.42-24.602 9.212 0 17.438 4.013 17.67 16.46h-12.05c.115-3.897-1.738-6.107-5.678-6.107-7.068 0-9.617 8.142-9.617 14.017 0 3.432.81 8.783 6.662 8.783 3.998 0 6.257-2.735 7.069-6.399h12.513zM374.202 131.764H363L365.15 121H400l-2.15 10.764h-11.201L380.426 163h-12.447zM406.848 121H420l-8.848 42H398zM439.77 152.647c7.753 0 10.279-9.073 10.279-15.239 0-3.78-1.468-7.56-6.52-7.56-7.752 0-10.279 9.073-10.279 15.238 0 3.78 1.469 7.561 6.52 7.561m4.111-33.152c11.865 0 19.09 5.525 19.09 18.205 0 13.958-9.28 25.3-23.553 25.3-11.864 0-19.09-6.224-19.09-18.205 0-13.958 9.281-25.3 23.553-25.3M472.607 121h12.678l7.793 22.941h.116L497.846 121H510l-8.723 42h-12.561l-7.618-23.53h-.117L476.155 163H464z"/>
  </g>
</svg>
