<svg data-v-775fd7ca="" data-v-2b0c279d="" xmlns="http://www.w3.org/2000/svg" viewBox="0 0 46 46" width="46" height="46" focusable="false" class="brand"><title data-v-775fd7ca="">ParticipACTION</title> <path fill="#FFFFFF" data-v-775fd7ca="" d="M17 39c3.41-3.53 8.9-8.36 8-14a2.48 2.48 0 0 0-2.58-2.13c2.28-2.83 8.86-2.7 11.12 2.74C35.37 30 31.28 35.07 28.77 39z" class="p"></path> <path fill="#FFFFFF" data-v-775fd7ca="" d="M4 20.64c2.3 3.66 6.85 11.15 11.5 11.3 4.84.16 7.81-4.67 7.28-8.21a2.57 2.57 0 0 1-2.94 1.71c-4.72-.92-6.71-5.3-9.38-12.35l-.06.07-.46.54L4 20.65" class="p"></path> <path fill="#FFFFFF" data-v-775fd7ca="" d="M36.23 17.83c-3.72-.33-10.94-1.58-13.82 1.74a2.47 2.47 0 0 0-.08 3.33c-3.08-.61-7.24-6.66-4.2-10.65 3.46-4.54 14.54-5 26.69-3.19z" class="o"></path></svg>