<svg xmlns="http://www.w3.org/2000/svg" xmlns:xlink="http://www.w3.org/1999/xlink" viewBox="0 0 533.49 121.86"><defs><style>.cls-1{isolation:isolate;}.cls-2{fill:#050d9e;}.cls-3{fill:url(#linear-gradient);}.cls-4{mix-blend-mode:multiply;fill:url(#linear-gradient-2);}.cls-5{fill:url(#linear-gradient-3);}</style><linearGradient id="linear-gradient" x1="81.89" y1="8.83" x2="9.63" y2="125.97" gradientUnits="userSpaceOnUse"><stop offset="0.04" stop-color="#152453"/><stop offset="0.2" stop-color="#050d9e"/><stop offset="0.52" stop-color="#082961"/><stop offset="1" stop-color="#050d9e"/></linearGradient><linearGradient id="linear-gradient-2" x1="56.98" y1="90.8" x2="76.16" y2="71.34" gradientUnits="userSpaceOnUse"><stop offset="0.07" stop-color="#002e6d" stop-opacity="0.07"/><stop offset="0.47" stop-color="#002e6d"/><stop offset="1" stop-color="#002e6d" stop-opacity="0.1"/></linearGradient><linearGradient id="linear-gradient-3" x1="91.52" y1="36.43" x2="87.75" y2="135.65" gradientUnits="userSpaceOnUse"><stop offset="0" stop-color="#45782c"/><stop offset="0.43" stop-color="#72d54a"/><stop offset="0.94" stop-color="#aad599"/></linearGradient></defs><title>Alchemy_logo_2018</title><g class="cls-1"><g id="Layer_1" data-name="Layer 1"><path class="cls-2" d="M186.42,70.55h-14l-2.8,10.85h-10.5l14.35-45.64h12.33L200.14,81.4H189.22Zm-2.11-8-1.12-4.2c-1.25-4.55-2.45-9.94-3.71-14.7h-.28c-1,4.83-2.31,10.15-3.57,14.7l-1.12,4.2Z"/><path class="cls-2" d="M218.89,35.76h10.36v37h18V81.4H218.89Z"/><path class="cls-2" d="M284.83,34.92a19.19,19.19,0,0,1,13.52,5.95l-5.67,6.37c-2.31-2.1-4.48-3.43-7.71-3.43-6.37,0-11.34,5.53-11.34,14.7,0,9.38,4.41,14.84,11.06,14.84a11.19,11.19,0,0,0,8.69-4.06l5.67,6.23a18.64,18.64,0,0,1-14.5,6.72c-11.83,0-21.49-8-21.49-23.38C263.06,43.74,273.07,34.92,284.83,34.92Z"/><path class="cls-2" d="M319.41,35.76h10.36V53.33h15.75V35.76h10.3V81.4h-10.3v-19H329.77v19H319.41Z"/><path class="cls-2" d="M379.89,35.76h28.63v8.68H390.25v9.17h15.54v8.61H390.25v10.5h19V81.4H379.89Z"/><path class="cls-2" d="M432.32,35.76h10.92l7.63,20.51,2.73,8h.28l2.73-8L464,35.76H475V81.4h-9.67V64.67c0-4.48.84-11.13,1.33-15.54h-.28L462.63,59.7l-7.07,17.71h-4.13l-7-17.71-3.64-10.57h-.28c.49,4.41,1.33,11.06,1.33,15.54V81.4h-9.52Z"/><path class="cls-2" d="M503.65,65.16l-13.72-29.4h11l4.13,10.5c1.19,3.43,2.38,6.58,3.71,10.08H509c1.26-3.5,2.59-6.65,3.85-10.08L517,35.76h10.78l-13.79,29.4V81.4H503.65Z"/><path class="cls-3" d="M75.42,78.07c22.72-29.75,29.73-61.7,15.67-71.36C86.63,3.64,80.58,3.2,73.68,5c5.38-1.26,10.08-.84,13.57,1.56,11.64,8,5.52,34.86-13.67,60s-44.17,39-55.81,31-5.52-34.85,13.67-60C42.18,23.47,54.74,12.93,65.75,7.78c-13.26,5.94-28.38,18.46-41.24,35.3C1.79,72.83-5.22,104.78,8.84,114.45S52.71,107.82,75.42,78.07Z"/><path class="cls-4" d="M80.59,70.87,74,65.75c-.2.27-.4.55-.61.82A120.18,120.18,0,0,1,53.26,87.41l6.45,8.26A146.22,146.22,0,0,0,75.27,78.3Q78.09,74.6,80.59,70.87Z"/><path class="cls-5" d="M76.14,31.12c-6.73-2.17-12.55-2-16.33,1C50.55,39.5,57,61.16,74.29,80.5s41.27,33.31,50.53,25.93.38-32.92-16.54-52.13c.71.76,1.42,1.53,2.12,2.32,20.43,22.9,27.92,48.69,16.73,57.6s-36.82-2.44-57.25-25.34S42,40.19,53.15,31.28C58.35,27.14,66.67,27.38,76.14,31.12Z"/></g></g></svg>